Coordinates
version=1
nRows=25
nColumns=23
inDegrees=yes

Units are S.I. units (second, meters, Newtons, ...)
If the header above contains a line with 'inDegrees', this indicates whether rotational values are in degrees (yes) or radians (no).

endheader
time	pelvis_tilt	pelvis_list	pelvis_rotation	pelvis_tx	pelvis_ty	pelvis_tz	hip_flexion_r	hip_adduction_r	hip_rotation_r	knee_angle_r	knee_angle_r_beta	ankle_angle_r	subtalar_angle_r	mtp_angle_r	hip_flexion_l	hip_adduction_l	hip_rotation_l	knee_angle_l	knee_angle_l_beta	ankle_angle_l	subtalar_angle_l	mtp_angle_l
      7.50000000	     -1.90378342	      5.55424369	      7.12947706	      2.10934854	      0.86757065	      1.00044119	    -11.49812891	     -4.87932330	    -12.26292104	     70.83765951	      1.23635039	     -9.02548107	    -14.78937020	      0.00000000	     26.67273372	     13.63023259	      0.74140259	     36.56793432	      0.63823085	      7.85612087	     -8.28939084	      0.00000000
      7.50666667	     -1.92955104	      5.77899713	      7.43301276	      2.10741875	      0.86178563	      1.00034429	     -9.89147761	     -5.45138093	    -12.00788821	     74.44538379	      1.29931706	     -8.67666689	    -14.40010507	      0.00000000	     26.82134932	     14.34677317	      1.40671967	     39.03681184	      0.68132090	      9.70147767	     -9.81770882	      0.00000000
      7.51333333	     -1.13165924	      6.06729262	      7.66172344	      2.10567988	      0.85742000	      1.00057817	     -9.26213896	     -5.90319612	    -11.75837856	     77.56468091	      1.35375907	     -8.62876412	    -14.61694706	      0.00000000	     25.91425988	     14.87913928	      1.83159042	     41.28067378	      0.72048367	     11.71277290	    -10.85729779	      0.00000000
      7.52000000	     -1.35076423	      6.22208234	      7.84292381	      2.10337237	      0.85188896	      1.00069515	     -7.22867280	     -6.48342443	    -11.34103915	     81.00345214	      1.41377695	     -8.09640612	    -14.42160597	      0.00000000	     26.20459098	     15.37245880	      2.18734962	     43.58030488	      0.76061981	     13.63050513	    -11.57011991	      0.00000000
      7.52666667	     -0.65205403	      6.46778222	      8.00061997	      2.10130327	      0.84810466	      1.00099078	     -6.30065194	     -6.93913716	    -10.97580944	     83.88412789	      1.46405422	     -7.82266046	    -14.78902286	      0.00000000	     25.25171422	     15.76942937	      2.57592559	     45.50806968	      0.79426565	     15.55758053	    -12.19409355	      0.00000000
      7.53333333	     -0.91410684	      6.55956499	      8.01249549	      2.09883897	      0.84330515	      1.00144186	     -4.03147043	     -7.54467027	    -10.43835094	     87.00885157	      1.51859094	     -7.19803935	    -14.91492969	      0.00000000	     25.42578138	     15.96293625	      2.62359703	     47.45010923	      0.82816064	     17.39943078	    -12.12113069	      0.00000000
      7.54000000	     -0.72348193	      6.67616239	      8.00412480	      2.09648813	      0.83967071	      1.00195076	     -2.25753001	     -8.02082150	     -9.86238674	     89.73563952	      1.56618237	     -6.67712072	    -15.33857015	      0.00000000	     24.91397955	     16.05548697	      2.68215883	     49.07349800	      0.85649412	     19.17530640	    -11.93146265	      0.00000000
      7.54666667	     -0.54526020	      6.77318327	      7.97034408	      2.09413686	      0.83653293	      1.00249397	     -0.40718422	     -8.49291211	     -9.27273860	     92.23712637	      1.60984155	     -6.14016300	    -15.86286862	      0.00000000	     24.27372593	     16.08194363	      2.74894428	     50.43598025	      0.88027392	     20.81196029	    -11.68692849	      0.00000000
      7.55333333	     -0.50860855	      6.79849634	      7.86906359	      2.09169391	      0.83367154	      1.00307271	      1.71606298	     -8.91389125	     -8.58854418	     94.57436467	      1.65063405	     -5.54540478	    -16.42101595	      0.00000000	     23.70491159	     15.93785750	      2.64297548	     51.60346162	      0.90065031	     22.34452385	    -11.13832955	      0.00000000
      7.56000000	     -0.46361031	      6.78093502	      7.75021001	      2.08930379	      0.83136969	      1.00365213	      3.87762458	     -9.24495843	     -7.87538357	     96.62888570	      1.68649221	     -4.96326691	    -17.01422663	      0.00000000	     22.97978010	     15.70968835	      2.53650548	     52.50983219	      0.91646946	     23.77607923	    -10.46953695	      0.00000000
      7.56666667	     -0.17872491	      6.79393407	      7.69558008	      2.08706836	      0.82996052	      1.00401399	      5.71627941	     -9.59680178	     -7.28956583	     98.31896104	      1.71598959	     -4.37869957	    -17.63806329	      0.00000000	     21.76876622	     15.58100175	      2.70465755	     53.04844005	      0.92586994	     24.92047522	    -10.27095801	      0.00000000
      7.57333333	     -0.56587982	      6.76211718	      7.42901388	      2.08460523	      0.82806035	      1.00459466	      8.53839257	     -9.93825276	     -6.35315421	    100.00330066	      1.74538686	     -3.82115929	    -18.21211595	      0.00000000	     21.30046142	     15.26892692	      2.33258105	     53.47856872	      0.93337710	     25.91320690	     -9.44691593	      0.00000000
      7.58000000	     -0.74624950	      6.66744678	      7.29291709	      2.08238639	      0.82703251	      1.00491746	     11.02345561	    -10.15624536	     -5.62062227	    101.26045388	      1.76732832	     -3.21438166	    -18.71341991	      0.00000000	     20.41592960	     14.96890580	      2.25957433	     53.61901056	      0.93582828	     26.73853548	     -8.86754790	      0.00000000
      7.58666667	     -0.85414871	      6.55384800	      7.20925781	      2.08033048	      0.82664403	      1.00502353	     13.36694923	    -10.35341381	     -5.00086327	    102.17268910	      1.78324983	     -2.61982530	    -19.15742496	      0.00000000	     19.30279636	     14.70749619	      2.35834416	     53.50908305	      0.93390968	     27.33978315	     -8.47454846	      0.00000000
      7.59333333	     -1.10542238	      6.42251679	      7.13606511	      2.07834483	      0.82663488	      1.00507473	     15.84877913	    -10.50223263	     -4.39075852	    102.81218667	      1.79441117	     -2.01831604	    -19.51397082	      0.00000000	     18.24106186	     14.44933156	      2.48033522	     53.18070090	      0.92817833	     27.76630384	     -8.07689460	      0.00000000
      7.60000000	     -1.51974322	      6.26993454	      7.06893338	      2.07646677	      0.82690011	      1.00504699	     18.47446764	    -10.63376657	     -3.82241667	    103.17890578	      1.80081162	     -1.43892274	    -19.72820033	      0.00000000	     17.27958509	     14.20030035	      2.63080665	     52.68021251	      0.91944316	     28.01264841	     -7.70008765	      0.00000000
      7.60666667	     -1.63432215	      5.92326267	      7.25842815	      2.07510817	      0.82831861	      1.00462253	     20.48640283	    -10.59188450	     -3.73096152	    103.00007135	      1.79769037	     -0.94813218	    -19.85490374	      0.00000000	     15.82908447	     13.79868740	      3.18399341	     51.96281779	      0.90692226	     28.15383854	     -7.42335853	      0.00000000
      7.61333333	     -1.86041452	      5.68827094	      7.31230975	      2.07372553	      0.82996654	      1.00445304	     22.63495242	    -10.56749297	     -3.45683447	    102.65677896	      1.79169879	     -0.23367348	    -20.00570231	      0.00000000	     14.45277066	     13.50336081	      3.65090818	     51.08437285	      0.89159050	     28.16421603	     -7.10050437	      0.00000000
      7.62000000	     -2.14233182	      5.33421258	      7.50940912	      2.07257359	      0.83198754	      1.00405490	     24.67705497	    -10.58886317	     -3.55012133	    101.98749675	      1.78001761	      0.16076826	    -19.99510295	      0.00000000	     13.12408980	     12.99916829	      4.03302207	     50.15851621	      0.87543126	     28.16453455	     -6.84878421	      0.00000000
      7.62666667	     -2.51481502	      4.99645965	      7.62941061	      2.07168469	      0.83470010	      1.00390528	     26.71773414	    -10.33170280	     -3.42144075	    100.97900105	      1.76241604	      0.83951895	    -19.90541747	      0.00000000	     11.74962032	     12.63755967	      4.71792601	     48.91173785	      0.85367087	     27.84251363	     -6.38322464	      0.00000000
      7.63333333	     -2.35625998	      4.58777096	      7.95038305	      2.07137291	      0.83862074	      1.00337693	     27.82653162	    -10.20392416	     -3.83187109	     99.51964491	      1.73694547	      1.57465686	    -19.44271832	      0.00000000	      9.67946529	     12.07469658	      5.51260019	     47.44528777	      0.82807649	     27.25761890	     -6.25473897	      0.00000000
      7.64000000	     -2.89345929	      4.20407426	      8.09539972	      2.07094023	      0.84186949	      1.00327490	     29.77462579	     -9.93845287	     -3.90298180	     97.99820135	      1.71039127	      2.05942154	    -19.22759964	      0.00000000	      8.47145132	     11.54928097	      5.98175947	     46.07155780	      0.80410038	     26.72085277	     -5.79527531	      0.00000000
      7.64666667	     -2.28959275	      3.60313908	      8.40871936	      2.07138558	      0.84736825	      1.00287617	     29.99078968	     -9.52518439	     -4.64372636	     95.81819429	      1.67234297	      2.62800299	    -18.71592240	      0.00000000	      5.79783280	     10.60256547	      6.75602322	     44.20507610	      0.77152412	     25.45920476	     -5.85065922	      0.00000000
      7.65333333	     -3.06261801	      3.21362280	      8.54032828	      2.07137023	      0.85093349	      1.00280446	     31.93822683	     -9.29384643	     -4.81657787	     93.85039994	      1.63799848	      3.07114330	    -18.32096141	      0.00000000	      4.85567370	      9.99890091	      6.96032356	     42.69164820	      0.74510982	     24.51248982	     -5.35238644	      0.00000000
      7.66000000	     -2.20716966	      2.49143044	      8.77058520	      2.07251237	      0.85749140	      1.00259694	     31.52017279	     -8.55605472	     -5.63233294	     91.04797436	      1.58908693	      3.47002292	    -17.80429283	      0.00000000	      1.84219311	      8.78340653	      7.55424550	     40.46565131	      0.70625885	     22.38144073	     -5.58916354	      0.00000000
